<svg xmlns="http://www.w3.org/2000/svg" width="360" height="45" viewBox="0 0 360 45">
  <g fill="none" fill-rule="evenodd">
    <g fill-rule="nonzero">
      <path fill="#000" d="M12.36,4.87 L4.56,4.87 L4.56,8.53 L11,8.53 L11,12.3 L4.6,12.3 L4.6,20.09 L0,20.09 L0,0.83 L12.36,0.83 L12.36,4.87 Z M24.55,0.56 C27.2051318,0.491569037 29.7732651,1.50929111 31.6607641,3.37791507 C33.548263,5.24653903 34.5917434,7.80431454 34.55,10.46 C34.55,15.9828475 30.0728475,20.46 24.55,20.46 C19.0271525,20.46 14.55,15.9828475 14.55,10.46 C14.5111044,7.80516467 15.5554933,5.24906359 17.4423574,3.38106809 C19.3292216,1.51307259 21.8956897,0.494425246 24.55,0.56 Z M24.55,16.21 C26.0507927,16.2181376 27.4880245,15.6047553 28.5204645,14.5154837 C29.5529044,13.4262121 30.0884679,11.958205 30,10.46 C30.0880382,8.96874639 29.5578246,7.50709132 28.5341696,6.41910307 C27.5105145,5.33111483 26.0838472,4.71290574 24.59,4.71 C21.49,4.71 19.21,7.13 19.21,10.46 C19.21,13.79 21.45,16.21 24.55,16.21 Z M47,0.56 C49.6551318,0.491569037 52.2232651,1.50929111 54.1107641,3.37791507 C55.998263,5.24653903 57.0417434,7.80431454 57,10.46 C57,15.9828475 52.5228475,20.46 47,20.46 C41.4771525,20.46 37,15.9828475 37,10.46 C36.9611044,7.80516467 38.0054933,5.24906359 39.8923574,3.38106809 C41.7792216,1.51307259 44.3456897,0.494425246 47,0.56 Z M47,16.21 C48.4938472,16.2070943 49.9205145,15.5888852 50.9441696,14.5008969 C51.9678246,13.4129087 52.4980382,11.9512536 52.41,10.46 C52.4980382,8.96874639 51.9678246,7.50709132 50.9441696,6.41910307 C49.9205145,5.33111483 48.4938472,4.71290574 47,4.71 C43.89,4.71 41.62,7.13 41.62,10.46 C41.62,13.79 43.93,16.21 47,16.21 Z M67,0.83 C72.3185021,0.83 76.63,5.14149786 76.63,10.46 C76.63,15.7785021 72.3185021,20.09 67,20.09 L59.86,20.09 L59.86,0.83 L67,0.83 Z M67,15.91 C70.49,15.91 72.25,13.37 72.25,10.32 C72.3420794,8.903915 71.8280948,7.51540617 70.8361675,6.5005882 C69.8442401,5.48577023 68.4678169,4.94024645 67.05,5 L64.36,5 L64.36,15.9 L67,15.91 Z M99.1,10.46 C99.1316053,12.8951936 98.2626754,15.2562611 96.66,17.09 L98.88,20.09 L93.69,20.09 L93.28,19.51 C91.9620044,20.0731216 90.5432526,20.3623156 89.11,20.36 C86.4556897,20.4255748 83.8892216,19.4069274 82.0023574,17.5389319 C80.1154933,15.6709364 79.0711044,13.1148353 79.11,10.46 C79.11,4.9371525 83.5871525,0.46 89.11,0.46 C94.6328475,0.46 99.11,4.9371525 99.11,10.46 L99.1,10.46 Z M89.1,16.21 C89.6277225,16.2098803 90.152826,16.1358272 90.66,15.99 L87.15,11.26 L92.34,11.26 L93.85,13.32 C94.2987379,12.4343181 94.5252521,11.4527566 94.51,10.46 C94.5980382,8.96874639 94.0678246,7.50709132 93.0441696,6.41910307 C92.0205145,5.33111483 90.5938472,4.71290574 89.1,4.71 C86,4.71 83.72,7.13 83.72,10.46 C83.72,13.79 86.06,16.21 89.16,16.21 L89.1,16.21 Z M112.66,0.83 L117.08,0.83 L117.08,13.1 C117.146746,15.1034337 116.371773,17.0433287 114.942992,18.4493105 C113.51421,19.8552923 111.562101,20.5989624 109.56,20.5 C105.46,20.5 102,17.75 102,13.1 L102,0.83 L106.43,0.83 L106.43,13.13 C106.32306,13.9962964 106.614776,14.8643482 107.22318,15.490247 C107.831585,16.1161459 108.691021,16.4323458 109.56,16.35 C110.9,16.35 112.66,15.77 112.66,13.13 L112.66,0.83 Z M124.86,16 L132.74,16 L132.74,20.07 L120.43,20.07 L120.43,0.83 L132.49,0.83 L132.49,4.9 L124.86,4.9 L124.86,8.4 L130.57,8.4 L130.57,12.4 L124.86,12.4 L124.86,16 Z M142,0.5 C144.771576,0.515229537 147.310731,2.05178354 148.61,4.5 L145.37,6.45 C144.3,5.08 143.37,4.45 142,4.45 C140.82,4.45 139.94,5.13 139.94,6.1 C139.94,7.07 140.49,7.58 141.86,8.1 L143.15,8.57 C147.63,10.14 149.15,12.12 149.15,14.68 C149.15,18.68 145.36,20.59 142.07,20.59 C138.912561,20.6838429 136.039178,18.7762693 134.9,15.83 L138.28,14.02 C138.92112,15.5545078 140.407289,16.5662007 142.07,16.6 C143.5,16.6 144.57,16.02 144.57,14.73 C144.57,13.44 143.91,13 141.85,12.23 L140.75,11.84 C137.92,10.84 135.53,9.48 135.53,5.95 C135.56,2.73 138.53,0.5 142,0.5 Z M165,0.83 L165,4.9 L160.33,4.9 L160.33,20.09 L155.91,20.09 L155.91,4.9 L151.24,4.9 L151.24,0.83 L165,0.83 Z" transform="translate(55 12)"/>
      <circle cx="22.5" cy="22.5" r="22.5" fill="#FDBC23"/>
      <circle cx="20.55" cy="20.48" r="20" fill="#FFF" transform="translate(2 2)"/>
      <path fill="#000" d="M11.64.43C11.4940979.435208942 11.3562532.498213344 11.2568387.605130758 11.1574243.712048172 11.1045981.854104888 11.11 1L11.59 24C11.59 24.3037566 11.8362434 24.55 12.14 24.55 12.4437566 24.55 12.69 24.3037566 12.69 24L12.21 1C12.2045474.70015573 11.9598938.459950427 11.66.46L11.64.43zM10.11.4C9.96412398.397323589 9.82316189.452718314 9.71813619.553993091 9.6131105.655267867 9.55262819.794123102 9.55.94L8.9 24C8.9 24.3037566 9.14624339 24.55 9.45 24.55 9.75375661 24.55 10 24.3037566 10 24L10.65 1C10.6671417.846706984 10.6179105.693400659 10.5147237.578748686 10.4115369.464096712 10.2642455.399044561 10.11.4zM3.43.44C4.26270647.458616219 5.03608749.875052153 5.51 1.56 6.24100865 2.65361176 6.59236657 3.95714964 6.51 5.27 6.51 7.47 5.51 9.27 4.37 9.9 4.1700782 10.0002031 4.04557227 10.206416 4.05 10.43L4.05 24C4.06690292 24.1811538 3.99631028 24.3594931 3.86 24.48 3.72368889 24.5795345 3.55876946 24.6321683 3.39 24.63 3.21782757 24.6343644 3.04905171 24.5816219 2.91 24.48 2.77368972 24.3594931 2.70309708 24.1811538 2.72 24L2.72 10.43C2.72442773 10.206416 2.5999218 10.0002031 2.4 9.9 1.26 9.29.27 7.47.27 5.27.187633434 3.95714964.538991354 2.65361176 1.27 1.56 1.76130473.853373794 2.56937856.434372547 3.43.44z" transform="translate(16 10)"/>
    </g>
    <path fill="#000" d="M237.7924,13.412 C238.468403,13.4015999 239.175596,13.3678003 239.914,13.3106 C240.652404,13.2533997 241.442796,13.1416008 242.2852,12.9752 L242.41,14.0828 C241.463595,14.2596009 240.582204,14.3765997 239.7658,14.4338 C238.949396,14.4910003 238.161604,14.5196 237.4024,14.5196 L236.5132,14.5196 L236.5132,5.8616 L237.7924,5.8616 L237.7924,13.412 Z M247.6984,4.1612 L247.6984,18.1388 L246.466,18.1388 L246.466,10.916 L244.4848,10.916 L244.4848,17.4368 L243.2836,17.4368 L243.2836,4.4732 L244.4848,4.4732 L244.4848,9.8552 L246.466,9.8552 L246.466,4.1612 L247.6984,4.1612 Z M263.1548,14.504 L261.8756,14.504 L261.8756,4.1768 L263.1548,4.1768 L263.1548,14.504 Z M259.676,12.554 C258.864796,12.2939987 258.152403,11.8988027 257.5388,11.3684 C256.925197,10.8379973 256.457202,10.2140036 256.1348,9.4964 C255.833198,10.2764039 255.375603,10.9549971 254.762,11.5322 C254.148397,12.1094029 253.425604,12.5383986 252.5936,12.8192 L251.9696,11.8208 C252.489603,11.6543992 252.965398,11.4204015 253.397,11.1188 C253.828602,10.8171985 254.197798,10.4740019 254.5046,10.0892 C254.811402,9.70439808 255.050599,9.28580226 255.2222,8.8334 C255.393801,8.38099774 255.4796,7.91040244 255.4796,7.4216 L255.4796,7.0628 L252.2972,7.0628 L252.2972,6.0332 L255.4796,6.0332 L255.4796,4.2392 L256.7588,4.2392 L256.7588,6.0332 L259.91,6.0332 L259.91,7.0628 L256.7432,7.0628 L256.7432,7.4216 C256.7432,7.87920229 256.831599,8.32379784 257.0084,8.7554 C257.185201,9.18700216 257.429598,9.58219821 257.7416,9.941 C258.053602,10.2998018 258.425398,10.6195986 258.857,10.9004 C259.288602,11.1812014 259.764397,11.3995992 260.2844,11.5556 L259.676,12.554 Z M263.576,16.7972 L263.576,17.8424 L254.1536,17.8424 L254.1536,13.5524 L255.4328,13.5524 L255.4328,16.7972 L263.576,16.7972 Z M277.6924,12.1328 L271.9828,12.1328 L271.9828,18.17 L270.688,18.17 L270.688,12.1328 L265.0408,12.1328 L265.0408,11.0876 L274.3228,11.0876 C274.541201,10.078795 274.6686,9.18960385 274.705,8.42 C274.7414,7.65039615 274.7596,6.93800328 274.7596,6.2828 L274.7596,6.0956 L266.6164,6.0956 L266.6164,5.066 L276.0076,5.066 L276.0076,6.2828 C276.0076,6.93800328 275.992,7.65039615 275.9608,8.42 C275.9296,9.18960385 275.815201,10.078795 275.6176,11.0876 L277.6924,11.0876 L277.6924,12.1328 Z M280.0932,8.3576 C280.0932,8.69040166 280.152999,8.99199865 280.2726,9.2624 C280.392201,9.53280135 280.561199,9.76419904 280.7796,9.9566 C280.998001,10.149001 281.257998,10.2971995 281.5596,10.4012 C281.861202,10.5052005 282.193998,10.5572 282.558,10.5572 C282.911602,10.5572 283.239198,10.5052005 283.5408,10.4012 C283.842402,10.2971995 284.102399,10.149001 284.3208,9.9566 C284.539201,9.76419904 284.708199,9.53280135 284.8278,9.2624 C284.947401,8.99199865 285.0072,8.69040166 285.0072,8.3576 C285.0072,8.03519839 284.947401,7.73620138 284.8278,7.4606 C284.708199,7.18499862 284.539201,6.95100096 284.3208,6.7586 C284.102399,6.56619904 283.842402,6.41540055 283.5408,6.3062 C283.239198,6.19699945 282.911602,6.1424 282.558,6.1424 C282.193998,6.1424 281.861202,6.19699945 281.5596,6.3062 C281.257998,6.41540055 280.998001,6.56619904 280.7796,6.7586 C280.561199,6.95100096 280.392201,7.18499862 280.2726,7.4606 C280.152999,7.73620138 280.0932,8.03519839 280.0932,8.3576 Z M283.1976,13.9736 C283.842403,13.9423998 284.481997,13.9034002 285.1164,13.8566 C285.750803,13.8097998 286.369597,13.7448004 286.9728,13.6616 L287.082,14.5976 C286.343596,14.7224006 285.589604,14.8211996 284.82,14.894 C284.050396,14.9668004 283.293804,15.0213998 282.5502,15.0578 C281.806596,15.0942002 281.081204,15.1175999 280.374,15.128 C279.666796,15.1384001 279.006403,15.1436 278.3928,15.1436 L278.2212,14.0672 C278.782803,14.0672 279.375597,14.0646 279.9996,14.0594 C280.623603,14.0542 281.263197,14.0412001 281.9184,14.0204 L281.9184,11.6024 C281.460798,11.5503997 281.044802,11.4334009 280.6704,11.2514 C280.295998,11.0693991 279.973601,10.8380014 279.7032,10.5572 C279.432799,10.2763986 279.222201,9.94880187 279.0714,9.5744 C278.920599,9.19999813 278.8452,8.79440218 278.8452,8.3576 C278.8452,7.86879756 278.936199,7.42160203 279.1182,7.016 C279.300201,6.61039797 279.554998,6.26460143 279.8826,5.9786 C280.210202,5.69259857 280.602798,5.46900081 281.0604,5.3078 C281.518002,5.14659919 282.017197,5.066 282.558,5.066 C283.088403,5.066 283.579798,5.14659919 284.0322,5.3078 C284.484602,5.46900081 284.874598,5.69259857 285.2022,5.9786 C285.529802,6.26460143 285.787199,6.61039797 285.9744,7.016 C286.161601,7.42160203 286.2552,7.86879756 286.2552,8.3576 C286.2552,8.79440218 286.179801,9.19739815 286.029,9.5666 C285.878199,9.93580185 285.667601,10.2607986 285.3972,10.5416 C285.126799,10.8224014 284.804402,11.0537991 284.43,11.2358 C284.055598,11.4178009 283.644802,11.5399997 283.1976,11.6024 L283.1976,13.9736 Z M291.3564,11.0096 L289.1412,11.0096 L289.1412,18.1544 L287.862,18.1544 L287.862,4.1456 L289.1412,4.1456 L289.1412,9.9332 L291.3564,9.9332 L291.3564,11.0096 Z M304.0048,5.9084 L295.7368,5.9084 L295.7368,4.8788 L305.2684,4.8788 L305.2684,6.0644 C305.2684,6.62600281 305.2528,7.20319704 305.2216,7.796 C305.1904,8.38880296 305.076001,9.04399641 304.8784,9.7616 L303.6304,9.6212 C303.724,9.26759823 303.7968,8.93220159 303.8488,8.615 C303.9008,8.29779841 303.9372,7.99620143 303.958,7.7102 C303.9788,7.42419857 303.9918,7.14600135 303.997,6.8756 C304.0022,6.60519865 304.0048,6.33480135 304.0048,6.0644 L304.0048,5.9084 Z M300.4948,17.1404 C301.597206,17.1404 302.473397,17.0026014 303.1234,16.727 C303.773403,16.4513986 304.0984,16.0692024 304.0984,15.5804 C304.0984,15.0811975 303.773403,14.6912014 303.1234,14.4104 C302.473397,14.1295986 301.597206,13.9892 300.4948,13.9892 C299.402795,13.9892 298.531803,14.1295986 297.8818,14.4104 C297.231797,14.6912014 296.9068,15.0811975 296.9068,15.5804 C296.9068,16.0692024 297.231797,16.4513986 297.8818,16.727 C298.531803,17.0026014 299.402795,17.1404 300.4948,17.1404 Z M300.4948,13.0064 C301.243604,13.0064 301.916997,13.0635994 302.515,13.178 C303.113003,13.2924006 303.625198,13.4613989 304.0516,13.685 C304.478002,13.9086011 304.805599,14.1789984 305.0344,14.4962 C305.263201,14.8134016 305.3776,15.174798 305.3776,15.5804 C305.3776,15.975602 305.263201,16.3317984 305.0344,16.649 C304.805599,16.9662016 304.478002,17.2339989 304.0516,17.4524 C303.625198,17.6708011 303.113003,17.8397994 302.515,17.9594 C301.916997,18.0790006 301.243604,18.1388 300.4948,18.1388 C299.745996,18.1388 299.072603,18.0790006 298.4746,17.9594 C297.876597,17.8397994 297.367002,17.6708011 296.9458,17.4524 C296.524598,17.2339989 296.199601,16.9662016 295.9708,16.649 C295.741999,16.3317984 295.6276,15.975602 295.6276,15.5804 C295.6276,15.174798 295.741999,14.8134016 295.9708,14.4962 C296.199601,14.1789984 296.524598,13.9086011 296.9458,13.685 C297.367002,13.4613989 297.876597,13.2924006 298.4746,13.178 C299.072603,13.0635994 299.745996,13.0064 300.4948,13.0064 Z M306.844,10.682 L306.844,11.7272 L294.2548,11.7272 L294.2548,10.682 L299.4184,10.682 L299.4184,7.9988 L300.6976,7.9988 L300.6976,10.682 L306.844,10.682 Z M313.878,5.7524 C313.347597,5.7524 312.864002,5.79919953 312.4272,5.8928 C311.990398,5.98640047 311.613402,6.12159912 311.2962,6.2984 C310.978998,6.47520088 310.734601,6.68579878 310.563,6.9302 C310.391399,7.17460122 310.3056,7.45279844 310.3056,7.7648 C310.3056,8.07680156 310.391399,8.35759875 310.563,8.6072 C310.734601,8.85680125 310.978998,9.06999912 311.2962,9.2468 C311.613402,9.42360088 311.990398,9.55879953 312.4272,9.6524 C312.864002,9.74600047 313.347597,9.7928 313.878,9.7928 C314.408403,9.7928 314.894598,9.74600047 315.3366,9.6524 C315.778602,9.55879953 316.158198,9.42360088 316.4754,9.2468 C316.792602,9.06999912 317.036999,8.85680125 317.2086,8.6072 C317.380201,8.35759875 317.466,8.07680156 317.466,7.7648 C317.466,7.45279844 317.380201,7.17460122 317.2086,6.9302 C317.036999,6.68579878 316.792602,6.47520088 316.4754,6.2984 C316.158198,6.12159912 315.778602,5.98640047 315.3366,5.8928 C314.894598,5.79919953 314.408403,5.7524 313.878,5.7524 Z M313.878,10.8224 C313.149996,10.8224 312.487003,10.7522007 311.889,10.6118 C311.290997,10.4713993 310.776202,10.2686013 310.3446,10.0034 C309.912998,9.73819867 309.580201,9.4158019 309.3462,9.0362 C309.112199,8.6565981 308.9952,8.23280234 308.9952,7.7648 C308.9952,7.29679766 309.112199,6.87560187 309.3462,6.5012 C309.580201,6.12679813 309.912998,5.80700133 310.3446,5.5418 C310.776202,5.27659867 311.290997,5.0738007 311.889,4.9334 C312.487003,4.7929993 313.149996,4.7228 313.878,4.7228 C314.606004,4.7228 315.271597,4.7929993 315.8748,4.9334 C316.478003,5.0738007 316.992798,5.27659867 317.4192,5.5418 C317.845602,5.80700133 318.178399,6.12679813 318.4176,6.5012 C318.656801,6.87560187 318.7764,7.29679766 318.7764,7.7648 C318.7764,8.23280234 318.656801,8.6565981 318.4176,9.0362 C318.178399,9.4158019 317.845602,9.73819867 317.4192,10.0034 C316.992798,10.2686013 316.478003,10.4713993 315.8748,10.6118 C315.271597,10.7522007 314.606004,10.8224 313.878,10.8224 Z M320.2428,13.178 L316.9356,13.178 L316.9356,18.1544 L315.6408,18.1544 L315.6408,13.178 L312.1308,13.178 L312.1308,18.1544 L310.836,18.1544 L310.836,13.178 L307.5756,13.178 L307.5756,12.1328 L320.2428,12.1328 L320.2428,13.178 Z M325.0304,13.9736 C325.352802,13.9736 325.646599,13.9190005 325.9118,13.8098 C326.177001,13.7005995 326.408399,13.5524009 326.606,13.3652 C326.803601,13.1779991 326.956999,12.9518013 327.0662,12.6866 C327.175401,12.4213987 327.23,12.1328016 327.23,11.8208 C327.23,11.5087984 327.175401,11.2202013 327.0662,10.955 C326.956999,10.6897987 326.803601,10.461001 326.606,10.2686 C326.408399,10.076199 326.177001,9.92540055 325.9118,9.8162 C325.646599,9.70699945 325.352802,9.6524 325.0304,9.6524 C324.718398,9.6524 324.427201,9.70699945 324.1568,9.8162 C323.886399,9.92540055 323.655001,10.076199 323.4626,10.2686 C323.270199,10.461001 323.119401,10.6897987 323.0102,10.955 C322.900999,11.2202013 322.8464,11.5087984 322.8464,11.8208 C322.8464,12.1328016 322.900999,12.4213987 323.0102,12.6866 C323.119401,12.9518013 323.270199,13.1779991 323.4626,13.3652 C323.655001,13.5524009 323.886399,13.7005995 324.1568,13.8098 C324.427201,13.9190005 324.718398,13.9736 325.0304,13.9736 Z M325.0304,8.5916 C325.529602,8.5916 325.987198,8.67219919 326.4032,8.8334 C326.819202,8.99460081 327.180598,9.21819857 327.4874,9.5042 C327.794202,9.79020143 328.030799,10.130798 328.1972,10.526 C328.363601,10.921202 328.4468,11.3527977 328.4468,11.8208 C328.4468,12.2992024 328.363601,12.735998 328.1972,13.1312 C328.030799,13.526402 327.794202,13.8643986 327.4874,14.1452 C327.180598,14.4260014 326.819202,14.6443992 326.4032,14.8004 C325.987198,14.9564008 325.529602,15.0344 325.0304,15.0344 C324.541598,15.0344 324.089202,14.9564008 323.6732,14.8004 C323.257198,14.6443992 322.898402,14.4260014 322.5968,14.1452 C322.295198,13.8643986 322.061201,13.526402 321.8948,13.1312 C321.728399,12.735998 321.6452,12.2992024 321.6452,11.8208 C321.6452,11.3527977 321.728399,10.921202 321.8948,10.526 C322.061201,10.130798 322.295198,9.79020143 322.5968,9.5042 C322.898402,9.21819857 323.257198,8.99460081 323.6732,8.8334 C324.089202,8.67219919 324.541598,8.5916 325.0304,8.5916 Z M325.6544,6.4076 L329.102,6.4076 L329.102,7.4372 L320.8496,7.4372 L320.8496,6.4076 L324.3752,6.4076 L324.3752,4.3328 L325.6544,4.3328 L325.6544,6.4076 Z M334.0004,10.994 L331.7072,10.994 L331.7072,18.1544 L330.428,18.1544 L330.428,4.1768 L331.7072,4.1768 L331.7072,9.9176 L334.0004,9.9176 L334.0004,10.994 Z M345.496,9.4184 L335.98,9.4184 L335.98,4.676 L337.2592,4.676 L337.2592,8.3732 L345.496,8.3732 L345.496,9.4184 Z M337.1656,16.766 L345.574,16.766 L345.574,17.8112 L335.8864,17.8112 L335.8864,13.724 L337.1656,13.724 L337.1656,16.766 Z M346.9468,11.2904 L346.9468,12.32 L334.264,12.32 L334.264,11.2904 L346.9468,11.2904 Z M244.0792,33.8848 C243.600798,33.9784005 243.130202,34.0563997 242.6674,34.1188 C242.204598,34.1812003 241.715803,34.2305998 241.201,34.267 C240.686197,34.3034002 240.132403,34.3293999 239.5396,34.345 C238.946797,34.3606001 238.281204,34.3684 237.5428,34.3684 L236.4508,34.3684 L236.4508,28.2376 L242.6284,28.2376 L242.6284,29.2672 L237.7144,29.2672 L237.7144,33.3232 C238.411203,33.3232 239.040397,33.3154001 239.602,33.2998 C240.163603,33.2841999 240.688798,33.2582002 241.1776,33.2218 C241.666402,33.1853998 242.134398,33.1360003 242.5816,33.0736 C243.028802,33.0111997 243.481198,32.9332005 243.9388,32.8396 L244.0792,33.8848 Z M242.2384,40.1092 C243.278405,40.1092 244.094797,39.9636015 244.6876,39.6724 C245.280403,39.3811985 245.5768,38.9756026 245.5768,38.4556 C245.5768,37.9355974 245.280403,37.5300015 244.6876,37.2388 C244.094797,36.9475985 243.278405,36.802 242.2384,36.802 C241.198395,36.802 240.379403,36.9475985 239.7814,37.2388 C239.183397,37.5300015 238.8844,37.9355974 238.8844,38.4556 C238.8844,38.9756026 239.183397,39.3811985 239.7814,39.6724 C240.379403,39.9636015 241.198395,40.1092 242.2384,40.1092 Z M242.2384,35.7724 C242.945604,35.7724 243.582597,35.8321994 244.1494,35.9518 C244.716203,36.0714006 245.199798,36.2481988 245.6002,36.4822 C246.000602,36.7162012 246.307399,36.9995983 246.5206,37.3324 C246.733801,37.6652017 246.8404,38.0395979 246.8404,38.4556 C246.8404,38.8820021 246.733801,39.2589984 246.5206,39.5866 C246.307399,39.9142016 246.000602,40.1949988 245.6002,40.429 C245.199798,40.6630012 244.716203,40.8397994 244.1494,40.9594 C243.582597,41.0790006 242.945604,41.1388 242.2384,41.1388 C241.531196,41.1388 240.891603,41.0790006 240.3196,40.9594 C239.747597,40.8397994 239.261402,40.6630012 238.861,40.429 C238.460598,40.1949988 238.153801,39.9142016 237.9406,39.5866 C237.727399,39.2589984 237.6208,38.8820021 237.6208,38.4556 C237.6208,38.0395979 237.727399,37.6652017 237.9406,37.3324 C238.153801,36.9995983 238.460598,36.7162012 238.861,36.4822 C239.261402,36.2481988 239.747597,36.0714006 240.3196,35.9518 C240.891603,35.8321994 241.531196,35.7724 242.2384,35.7724 Z M248.7592,30.796 L248.7592,31.8568 L246.7,31.8568 L246.7,35.4916 L245.4052,35.4916 L245.4052,27.1612 L246.7,27.1612 L246.7,30.796 L248.7592,30.796 Z M260.6604,37.426 L259.3812,37.426 L259.3812,27.1612 L260.6604,27.1612 L260.6604,37.426 Z M256.932,35.1484 C256.131196,34.8467985 255.434403,34.394403 254.8416,33.7912 C254.248797,33.187997 253.796402,32.486004 253.4844,31.6852 C253.182798,32.5380043 252.730403,33.2893967 252.1272,33.9394 C251.523997,34.5894033 250.811604,35.0859983 249.99,35.4292 L249.3192,34.384 C249.849603,34.186399 250.330598,33.9134017 250.7622,33.565 C251.193802,33.2165983 251.562998,32.8240022 251.8698,32.3872 C252.176602,31.9503978 252.413199,31.4746026 252.5796,30.9598 C252.746001,30.4449974 252.8292,29.9120028 252.8292,29.3608 L252.8292,27.9412 L254.1084,27.9412 L254.1084,29.3608 C254.1084,29.8912027 254.194199,30.4007976 254.3658,30.8896 C254.537401,31.3784024 254.776598,31.8307979 255.0834,32.2468 C255.390202,32.6628021 255.756798,33.0345984 256.1832,33.3622 C256.609602,33.6898016 257.082797,33.9471991 257.6028,34.1344 L256.932,35.1484 Z M261.0816,39.7972 L261.0816,40.8424 L251.6592,40.8424 L251.6592,36.4744 L252.9384,36.4744 L252.9384,39.7972 L261.0816,39.7972 Z M267.0704,28.1908 C267.611203,28.1908 268.112998,28.2713992 268.5758,28.4326 C269.038602,28.5938008 269.433798,28.8173986 269.7614,29.1034 C270.089002,29.3894014 270.346399,29.735198 270.5336,30.1408 C270.720801,30.546402 270.8144,30.9935976 270.8144,31.4824 C270.8144,31.9712024 270.720801,32.418398 270.5336,32.824 C270.346399,33.229602 270.089002,33.5753986 269.7614,33.8614 C269.433798,34.1474014 269.038602,34.3709992 268.5758,34.5322 C268.112998,34.6934008 267.611203,34.774 267.0704,34.774 C266.529597,34.774 266.030402,34.6934008 265.5728,34.5322 C265.115198,34.3709992 264.720002,34.1474014 264.3872,33.8614 C264.054398,33.5753986 263.794401,33.229602 263.6072,32.824 C263.419999,32.418398 263.3264,31.9712024 263.3264,31.4824 C263.3264,30.9935976 263.419999,30.546402 263.6072,30.1408 C263.794401,29.735198 264.054398,29.3894014 264.3872,29.1034 C264.720002,28.8173986 265.115198,28.5938008 265.5728,28.4326 C266.030402,28.2713992 266.529597,28.1908 267.0704,28.1908 Z M267.0704,29.2828 C266.706398,29.2828 266.371002,29.3347995 266.0642,29.4388 C265.757398,29.5428005 265.494801,29.693599 265.2764,29.8912 C265.057999,30.088801 264.886401,30.3227986 264.7616,30.5932 C264.636799,30.8636014 264.5744,31.1599984 264.5744,31.4824 C264.5744,31.8048016 264.636799,32.1011986 264.7616,32.3716 C264.886401,32.6420014 265.057999,32.873399 265.2764,33.0658 C265.494801,33.258201 265.757398,33.4089995 266.0642,33.5182 C266.371002,33.6274005 266.706398,33.682 267.0704,33.682 C267.434402,33.682 267.769798,33.6274005 268.0766,33.5182 C268.383402,33.4089995 268.645999,33.258201 268.8644,33.0658 C269.082801,32.873399 269.254399,32.6420014 269.3792,32.3716 C269.504001,32.1011986 269.5664,31.8048016 269.5664,31.4824 C269.5664,31.1599984 269.504001,30.8636014 269.3792,30.5932 C269.254399,30.3227986 269.082801,30.088801 268.8644,29.8912 C268.645999,29.693599 268.383402,29.5428005 268.0766,29.4388 C267.769798,29.3347995 267.434402,29.2828 267.0704,29.2828 Z M273.9344,27.1612 L273.9344,41.1856 L272.6552,41.1856 L272.6552,27.1612 L273.9344,27.1612 Z M262.6244,37.036 C263.258803,37.036 263.947796,37.0334 264.6914,37.0282 C265.435004,37.023 266.199396,37.0048002 266.9846,36.9736 C267.769804,36.9423998 268.565396,36.8930003 269.3714,36.8254 C270.177404,36.7577997 270.965196,36.6668006 271.7348,36.5524 L271.844,37.504 C271.053596,37.6496007 270.255404,37.7639996 269.4494,37.8472 C268.643396,37.9304004 267.853004,37.9927998 267.0782,38.0344 C266.303396,38.0760002 265.552004,38.0994 264.824,38.1046 C264.095996,38.1098 263.414803,38.1124 262.7804,38.1124 L262.6244,37.036 Z M283.9932,29.2516 L280.2024,29.2516 L280.2024,33.4012 L283.9932,33.4012 L283.9932,29.2516 Z M285.2568,34.4308 L278.9544,34.4308 L278.9544,28.2376 L285.2568,28.2376 L285.2568,34.4308 Z M285.6468,36.2092 C285.6468,36.7084025 285.771599,37.1711979 286.0212,37.5976 C286.270801,38.0240021 286.611398,38.4035983 287.043,38.7364 C287.474602,39.0692017 287.971197,39.3525988 288.5328,39.5866 C289.094403,39.8206012 289.687197,39.9895995 290.3112,40.0936 L289.7964,41.092 C289.276397,40.9983995 288.774602,40.8606009 288.291,40.6786 C287.807398,40.4965991 287.357602,40.2782013 286.9416,40.0234 C286.525598,39.7685987 286.153802,39.4774016 285.8262,39.1498 C285.498598,38.8221984 285.230801,38.460802 285.0228,38.0656 C284.814799,38.460802 284.544402,38.8221984 284.2116,39.1498 C283.878798,39.4774016 283.501802,39.7685987 283.0806,40.0234 C282.659398,40.2782013 282.207002,40.4965991 281.7234,40.6786 C281.239798,40.8606009 280.738003,40.9983995 280.218,41.092 L279.7032,40.0936 C280.327203,39.9895995 280.922597,39.8206012 281.4894,39.5866 C282.056203,39.3525988 282.552798,39.0692017 282.9792,38.7364 C283.405602,38.4035983 283.746199,38.0240021 284.001,37.5976 C284.255801,37.1711979 284.3832,36.7084025 284.3832,36.2092 L284.3832,35.7724 L285.6468,35.7724 L285.6468,36.2092 Z M291.3096,30.9832 L291.3096,32.044 L289.2348,32.044 L289.2348,36.4588 L287.9556,36.4588 L287.9556,27.1612 L289.2348,27.1612 L289.2348,30.9832 L291.3096,30.9832 Z M299.6696,34.5244 C298.858396,34.2643987 298.146003,33.8666027 297.5324,33.331 C296.918797,32.7953973 296.450802,32.1636036 296.1284,31.4356 C295.826798,32.2156039 295.366603,32.8941971 294.7478,33.4714 C294.128997,34.0486029 293.398404,34.4827985 292.556,34.774 L291.9008,33.76 C292.431203,33.5935992 292.914798,33.3648015 293.3516,33.0736 C293.788402,32.7823985 294.162798,32.4444019 294.4748,32.0596 C294.786802,31.6747981 295.028599,31.2588022 295.2002,30.8116 C295.371801,30.3643978 295.4576,29.9016024 295.4576,29.4232 L295.4576,29.1112 L292.2596,29.1112 L292.2596,28.066 L299.9348,28.066 L299.9348,29.1112 L296.768,29.1112 L296.768,29.4232 C296.768,29.8808023 296.853799,30.3227979 297.0254,30.7492 C297.197001,31.1756021 297.438798,31.5681982 297.7508,31.927 C298.062802,32.2858018 298.434598,32.6055986 298.8662,32.8864 C299.297802,33.1672014 299.773597,33.3855992 300.2936,33.5416 L299.6696,34.5244 Z M301.9472,38.1124 L295.4576,38.1124 L295.4576,39.922 L301.9472,39.922 L301.9472,38.1124 Z M301.9472,35.4136 L303.2108,35.4136 L303.2108,40.9672 L294.194,40.9672 L294.194,35.4136 L295.4576,35.4136 L295.4576,37.114 L301.9472,37.114 L301.9472,35.4136 Z M303.2108,27.1612 L303.2108,34.7428 L301.9316,34.7428 L301.9316,27.1612 L303.2108,27.1612 Z M312.24,32.98 L309.2916,32.98 L309.2916,36.5992 L312.24,36.5992 L312.24,32.98 Z M315.4692,27.4732 L316.686,27.4732 L316.686,40.468 L315.4692,40.468 L315.4692,33.526 L313.4412,33.526 L313.4412,37.6444 L308.0748,37.6444 L308.0748,28.5496 L309.2916,28.5496 L309.2916,31.9504 L312.24,31.9504 L312.24,28.5496 L313.4412,28.5496 L313.4412,32.4808 L315.4692,32.4808 L315.4692,27.4732 Z M319.4628,27.1612 L319.4628,41.1544 L318.246,41.1544 L318.246,27.1612 L319.4628,27.1612 Z M332.4092,35.2576 C331.878797,35.1327994 331.351003,34.9508012 330.8258,34.7116 C330.300597,34.4723988 329.809202,34.1786017 329.3516,33.8302 C328.893998,33.4817983 328.478002,33.0892022 328.1036,32.6524 C327.729198,32.2155978 327.432801,31.7372026 327.2144,31.2172 C326.995999,31.7268025 326.699602,32.1999978 326.3252,32.6368 C325.950798,33.0736022 325.534802,33.4661983 325.0772,33.8146 C324.619598,34.1630017 324.130803,34.4593988 323.6108,34.7038 C323.090797,34.9482012 322.565603,35.1327994 322.0352,35.2576 L321.458,34.1968 C322.071603,34.0719994 322.679997,33.8562015 323.2832,33.5494 C323.886403,33.2425985 324.429798,32.8682022 324.9134,32.4262 C325.397002,31.9841978 325.789598,31.4876028 326.0912,30.9364 C326.392802,30.3851972 326.5436,29.813203 326.5436,29.2204 L326.5436,28.144 L327.8852,28.144 L327.8852,29.2204 C327.8852,29.813203 328.035998,30.3851972 328.3376,30.9364 C328.639202,31.4876028 329.031798,31.9841978 329.5154,32.4262 C329.999002,32.8682022 330.544997,33.2451984 331.1534,33.5572 C331.761803,33.8692016 332.372797,34.0823994 332.9864,34.1968 L332.4092,35.2576 Z M333.6104,38.2216 L333.6104,39.2824 L320.9276,39.2824 L320.9276,38.2216 L333.6104,38.2216 Z M345.5116,35.7412 L335.902,35.7412 L335.902,28.378 L345.3712,28.378 L345.3712,29.4076 L337.1968,29.4076 L337.1968,31.4824 L345.0592,31.4824 L345.0592,32.4964 L337.1968,32.4964 L337.1968,34.7116 L345.5116,34.7116 L345.5116,35.7412 Z M346.9624,38.2996 L346.9624,39.3448 L334.264,39.3448 L334.264,38.2996 L346.9624,38.2996 Z M347.9124,31.6384 C347.9852,31.1183974 348.130799,30.655602 348.3492,30.25 C348.567601,29.844398 348.840598,29.5038014 349.1682,29.2282 C349.495802,28.9525986 349.872798,28.7420007 350.2992,28.5964 C350.725602,28.4507993 351.183198,28.378 351.672,28.378 C352.171202,28.378 352.626198,28.4507993 353.037,28.5964 C353.447802,28.7420007 353.803998,28.9447987 354.1056,29.2048 C354.407202,29.4648013 354.641199,29.7741982 354.8076,30.133 C354.974001,30.4918018 355.0572,30.8947978 355.0572,31.342 C355.0572,31.7060018 355.0104,32.0335985 354.9168,32.3248 C354.8232,32.6160015 354.688001,32.8681989 354.5112,33.0814 C354.334399,33.2946011 354.121201,33.4765992 353.8716,33.6274 C353.621999,33.7782008 353.346402,33.9055995 353.0448,34.0096 C353.793604,34.1968009 354.360398,34.5269976 354.7452,35.0002 C355.130002,35.4734024 355.3224,36.0635965 355.3224,36.7708 C355.3224,37.2908026 355.221001,37.7639979 355.0182,38.1904 C354.815399,38.6168021 354.537202,38.9781985 354.1836,39.2746 C353.829998,39.5710015 353.421802,39.7997992 352.959,39.961 C352.496198,40.1222008 351.994403,40.2028 351.4536,40.2028 C350.839997,40.2028 350.320002,40.1248008 349.8936,39.9688 C349.467198,39.8127992 349.100602,39.5996014 348.7938,39.3292 C348.486998,39.0587986 348.237401,38.7416018 348.045,38.3776 C347.852599,38.0135982 347.688801,37.6184021 347.5536,37.192 L348.8328,36.6616 C348.864,36.8384009 348.941999,37.0723985 349.0668,37.3636 C349.222801,37.6860016 349.409999,37.9667988 349.6284,38.206 C349.846801,38.4452012 350.093799,38.6323993 350.3694,38.7676 C350.645001,38.9028007 351.001198,38.9704 351.438,38.9704 C351.843602,38.9704 352.199798,38.9028007 352.5066,38.7676 C352.813402,38.6323993 353.065599,38.463401 353.2632,38.2606 C353.460801,38.057799 353.611599,37.8290013 353.7156,37.5742 C353.819601,37.3193987 353.8716,37.0620013 353.8716,36.802 C353.8716,36.4899984 353.83,36.2040013 353.7468,35.944 C353.6636,35.6839987 353.515401,35.4604009 353.3022,35.2732 C353.088999,35.0859991 352.787402,34.9378005 352.3974,34.8286 C352.007398,34.7193995 351.510803,34.6648 350.9076,34.6648 L350.9076,33.6352 C351.406802,33.6247999 351.830598,33.5702005 352.179,33.4714 C352.527402,33.3725995 352.810799,33.2322009 353.0292,33.0502 C353.247601,32.8681991 353.4036,32.6524012 353.4972,32.4028 C353.5908,32.1531988 353.6376,31.8776015 353.6376,31.576 C353.6376,31.2535984 353.5882,30.9676012 353.4894,30.718 C353.3906,30.4683988 353.250201,30.2656008 353.0682,30.1096 C352.886199,29.9535992 352.667801,29.8340004 352.413,29.7508 C352.158199,29.6675996 351.885201,29.626 351.594,29.626 C351.302799,29.626 351.035001,29.6701996 350.7906,29.7586 C350.546199,29.8470004 350.327801,29.9665992 350.1354,30.1174 C349.942999,30.2682008 349.784401,30.447599 349.6596,30.6556 C349.534799,30.863601 349.4464,31.0923988 349.3944,31.342 C349.3528,31.550001 349.332,31.7267993 349.332,31.8724 L347.9124,31.6384 Z"/>
  </g>
</svg>
